<svg xmlns="http://www.w3.org/2000/svg" version="1.1" xmlns:xlink="http://www.w3.org/1999/xlink" xmlns:svgjs="http://svgjs.com/svgjs" width="1920" height="250" preserveAspectRatio="none" viewBox="0 0 1920 250"><g mask="url(&quot;#SvgjsMask1038&quot;)" fill="none"><path d="M28 250L278 0L563 0L313 250z" fill="url(#SvgjsLinearGradient1039)"></path><path d="M347.8 250L597.8 0L882.8 0L632.8 250z" fill="url(#SvgjsLinearGradient1039)"></path><path d="M686.6 250L936.6 0L1179.6 0L929.6 250z" fill="url(#SvgjsLinearGradient1039)"></path><path d="M971.4000000000001 250L1221.4 0L1290.4 0L1040.4 250z" fill="url(#SvgjsLinearGradient1039)"></path><path d="M1874 250L1624 0L1177 0L1427 250z" fill="url(#SvgjsLinearGradient1040)"></path><path d="M1561.2 250L1311.2 0L865.7 0L1115.7 250z" fill="url(#SvgjsLinearGradient1040)"></path><path d="M1273.4 250L1023.4000000000001 0L631.9000000000001 0L881.9000000000001 250z" fill="url(#SvgjsLinearGradient1040)"></path><path d="M919.5999999999999 250L669.5999999999999 0L495.5999999999999 0L745.5999999999999 250z" fill="url(#SvgjsLinearGradient1040)"></path><path d="M1768.4726999130787 250L1920 98.47269991307866L1920 250z" fill="url(#SvgjsLinearGradient1039)"></path><path d="M0 250L151.52730008692134 250L 0 98.47269991307866z" fill="url(#SvgjsLinearGradient1040)"></path></g><defs><mask id="SvgjsMask1038"><rect width="1920" height="250" fill="#ffffff"></rect></mask><linearGradient x1="0%" y1="100%" x2="100%" y2="0%" id="SvgjsLinearGradient1039"><stop stop-color="rgba(4, 170, 128, 0.6)" offset="0"></stop><stop stop-opacity="0" stop-color="rgba(4, 170, 128, 0.6)" offset="0.66"></stop></linearGradient><linearGradient x1="100%" y1="100%" x2="0%" y2="0%" id="SvgjsLinearGradient1040"><stop stop-color="rgba(4, 170, 128, 0.6)" offset="0"></stop><stop stop-opacity="0" stop-color="rgba(4, 170, 128, 0.6)" offset="0.66"></stop></linearGradient></defs></svg>